<mxfile host="65bd71144e">
    <diagram id="zTFiwu_J7Cufril1yH0F" name="Page-1">
        <mxGraphModel dx="923" dy="1193" grid="0" gridSize="10" guides="1" tooltips="1" connect="1" arrows="1" fold="1" page="0" pageScale="1" pageWidth="850" pageHeight="1100" math="0" shadow="0">
            <root>
                <mxCell id="0"/>
                <mxCell id="1" parent="0"/>
                <mxCell id="3" value="Start" style="text;html=1;strokeColor=none;fillColor=none;align=left;verticalAlign=middle;whiteSpace=wrap;rounded=0;" parent="1" vertex="1">
                    <mxGeometry x="84.5" y="112" width="40" height="20" as="geometry"/>
                </mxCell>
                <mxCell id="5" value="STRIFE SLOOPS" style="text;html=1;strokeColor=none;fillColor=none;align=center;verticalAlign=middle;whiteSpace=wrap;rounded=0;" parent="1" vertex="1">
                    <mxGeometry x="51" y="82" width="113" height="20" as="geometry"/>
                </mxCell>
                <mxCell id="6" value="" style="triangle;whiteSpace=wrap;html=1;" parent="1" vertex="1">
                    <mxGeometry x="60" y="116" width="12" height="12" as="geometry"/>
                </mxCell>
                <mxCell id="7" value="Options" style="text;html=1;strokeColor=none;fillColor=none;align=left;verticalAlign=middle;whiteSpace=wrap;rounded=0;" parent="1" vertex="1">
                    <mxGeometry x="84.5" y="128" width="46" height="20" as="geometry"/>
                </mxCell>
                <mxCell id="8" value="Quit" style="text;html=1;strokeColor=none;fillColor=none;align=left;verticalAlign=middle;whiteSpace=wrap;rounded=0;" parent="1" vertex="1">
                    <mxGeometry x="84.5" y="145" width="40" height="20" as="geometry"/>
                </mxCell>
                <mxCell id="9" value="STRIFE" style="text;html=1;strokeColor=none;fillColor=none;align=center;verticalAlign=middle;whiteSpace=wrap;rounded=0;fontSize=24;" parent="1" vertex="1">
                    <mxGeometry x="-373" y="76.5" width="105" height="55" as="geometry"/>
                </mxCell>
                <mxCell id="10" value="SLOOPS" style="text;html=1;strokeColor=none;fillColor=none;align=center;verticalAlign=middle;whiteSpace=wrap;rounded=0;fontSize=24;" parent="1" vertex="1">
                    <mxGeometry x="-343" y="113.5" width="107" height="26" as="geometry"/>
                </mxCell>
                <mxCell id="11" value="&lt;font style=&quot;font-size: 12px&quot;&gt;Press any Key&lt;/font&gt;" style="text;html=1;strokeColor=none;fillColor=none;align=center;verticalAlign=middle;whiteSpace=wrap;rounded=0;fontSize=24;" parent="1" vertex="1">
                    <mxGeometry x="-358" y="147.5" width="90" height="20" as="geometry"/>
                </mxCell>
                <mxCell id="12" value="Title Screen" style="text;html=1;strokeColor=none;fillColor=none;align=center;verticalAlign=middle;whiteSpace=wrap;rounded=0;fontSize=12;fontStyle=1" parent="1" vertex="1">
                    <mxGeometry x="-340.5" y="-6" width="40" height="20" as="geometry"/>
                </mxCell>
                <mxCell id="13" value="First Time Setup" style="text;html=1;strokeColor=none;fillColor=none;align=center;verticalAlign=middle;whiteSpace=wrap;rounded=0;fontSize=12;fontStyle=1" vertex="1" parent="1">
                    <mxGeometry x="-167.5" y="-25.5" width="75" height="59" as="geometry"/>
                </mxCell>
                <mxCell id="14" value="Enter your name" style="text;html=1;strokeColor=none;fillColor=none;align=center;verticalAlign=middle;whiteSpace=wrap;rounded=0;fontSize=12;" vertex="1" parent="1">
                    <mxGeometry x="-171" y="85" width="92" height="20" as="geometry"/>
                </mxCell>
                <mxCell id="16" value="C D E" style="text;html=1;strokeColor=none;fillColor=none;align=center;verticalAlign=middle;whiteSpace=wrap;rounded=0;fontSize=12;" vertex="1" parent="1">
                    <mxGeometry x="-148" y="139" width="36" height="20" as="geometry"/>
                </mxCell>
                <mxCell id="21" value="" style="rounded=0;whiteSpace=wrap;html=1;fontSize=12;align=left;fillColor=none;" vertex="1" parent="1">
                    <mxGeometry x="-136" y="142" width="12" height="14" as="geometry"/>
                </mxCell>
                <mxCell id="25" value="DZ" style="text;html=1;strokeColor=none;fillColor=none;align=center;verticalAlign=middle;whiteSpace=wrap;rounded=0;fontSize=12;" vertex="1" parent="1">
                    <mxGeometry x="-150" y="111" width="40" height="20" as="geometry"/>
                </mxCell>
                <mxCell id="24" value="" style="endArrow=none;html=1;fontSize=12;" edge="1" parent="1">
                    <mxGeometry width="50" height="50" relative="1" as="geometry">
                        <mxPoint x="-156" y="131" as="sourcePoint"/>
                        <mxPoint x="-106" y="131" as="targetPoint"/>
                    </mxGeometry>
                </mxCell>
                <mxCell id="27" value="Main Menu" style="text;html=1;strokeColor=none;fillColor=none;align=center;verticalAlign=middle;whiteSpace=wrap;rounded=0;fontSize=12;fontStyle=1" vertex="1" parent="1">
                    <mxGeometry x="84.5" y="-6" width="40" height="20" as="geometry"/>
                </mxCell>
                <mxCell id="28" value="Options" style="text;html=1;strokeColor=none;fillColor=none;align=center;verticalAlign=middle;whiteSpace=wrap;rounded=0;fontSize=12;" vertex="1" parent="1">
                    <mxGeometry x="308" y="79" width="40" height="20" as="geometry"/>
                </mxCell>
                <mxCell id="29" value="User Settings" style="text;html=1;strokeColor=none;fillColor=none;align=center;verticalAlign=middle;whiteSpace=wrap;rounded=0;fontSize=12;" vertex="1" parent="1">
                    <mxGeometry x="284.5" y="108" width="87" height="20" as="geometry"/>
                </mxCell>
                <mxCell id="30" value="Saved Opponents" style="text;html=1;strokeColor=none;fillColor=none;align=center;verticalAlign=middle;whiteSpace=wrap;rounded=0;fontSize=12;" vertex="1" parent="1">
                    <mxGeometry x="289" y="125" width="101" height="20" as="geometry"/>
                </mxCell>
                <mxCell id="31" value="" style="triangle;whiteSpace=wrap;html=1;" vertex="1" parent="1">
                    <mxGeometry x="272.5" y="113" width="12" height="12" as="geometry"/>
                </mxCell>
                <mxCell id="32" value="Options" style="text;html=1;strokeColor=none;fillColor=none;align=center;verticalAlign=middle;whiteSpace=wrap;rounded=0;fontSize=12;fontStyle=1" vertex="1" parent="1">
                    <mxGeometry x="308" y="-6" width="40" height="20" as="geometry"/>
                </mxCell>
                <mxCell id="33" value="Start" style="text;html=1;strokeColor=none;fillColor=none;align=center;verticalAlign=middle;whiteSpace=wrap;rounded=0;fontSize=12;fontStyle=1" vertex="1" parent="1">
                    <mxGeometry x="87" y="277" width="40" height="20" as="geometry"/>
                </mxCell>
                <mxCell id="35" value="Host" style="text;html=1;strokeColor=none;fillColor=none;align=left;verticalAlign=middle;whiteSpace=wrap;rounded=0;fontSize=12;" vertex="1" parent="1">
                    <mxGeometry x="71.5" y="309" width="85" height="20" as="geometry"/>
                </mxCell>
                <mxCell id="36" value="Join" style="text;html=1;strokeColor=none;fillColor=none;align=left;verticalAlign=middle;whiteSpace=wrap;rounded=0;fontSize=12;" vertex="1" parent="1">
                    <mxGeometry x="71.5" y="329" width="77" height="20" as="geometry"/>
                </mxCell>
                <mxCell id="37" value="" style="triangle;whiteSpace=wrap;html=1;" vertex="1" parent="1">
                    <mxGeometry x="52.5" y="313" width="12" height="12" as="geometry"/>
                </mxCell>
                <mxCell id="38" value="Back" style="text;html=1;strokeColor=none;fillColor=none;align=left;verticalAlign=middle;whiteSpace=wrap;rounded=0;fontSize=12;" vertex="1" parent="1">
                    <mxGeometry x="289" y="145" width="40" height="20" as="geometry"/>
                </mxCell>
                <mxCell id="39" value="Back" style="text;html=1;strokeColor=none;fillColor=none;align=left;verticalAlign=middle;whiteSpace=wrap;rounded=0;fontSize=12;" vertex="1" parent="1">
                    <mxGeometry x="71.5" y="349" width="40" height="20" as="geometry"/>
                </mxCell>
                <mxCell id="41" value="Host" style="text;html=1;strokeColor=none;fillColor=none;align=center;verticalAlign=middle;whiteSpace=wrap;rounded=0;fontSize=12;fontStyle=1" vertex="1" parent="1">
                    <mxGeometry x="84" y="453" width="40" height="20" as="geometry"/>
                </mxCell>
                <mxCell id="42" value="Waiting for Opponent..." style="text;html=1;strokeColor=none;fillColor=none;align=center;verticalAlign=middle;whiteSpace=wrap;rounded=0;fontSize=12;" vertex="1" parent="1">
                    <mxGeometry x="84.5" y="506" width="40" height="20" as="geometry"/>
                </mxCell>
                <mxCell id="43" value="Join" style="text;html=1;strokeColor=none;fillColor=none;align=center;verticalAlign=middle;whiteSpace=wrap;rounded=0;fontSize=12;fontStyle=1" vertex="1" parent="1">
                    <mxGeometry x="87" y="621" width="40" height="20" as="geometry"/>
                </mxCell>
                <mxCell id="44" value="New Opponent" style="text;html=1;strokeColor=none;fillColor=none;align=center;verticalAlign=middle;whiteSpace=wrap;rounded=0;fontSize=12;" vertex="1" parent="1">
                    <mxGeometry x="67" y="662" width="86" height="20" as="geometry"/>
                </mxCell>
                <mxCell id="45" value="MATT" style="text;html=1;strokeColor=none;fillColor=none;align=left;verticalAlign=middle;whiteSpace=wrap;rounded=0;fontSize=12;" vertex="1" parent="1">
                    <mxGeometry x="67" y="682" width="40" height="20" as="geometry"/>
                </mxCell>
                <mxCell id="46" value="Back" style="text;html=1;strokeColor=none;fillColor=none;align=left;verticalAlign=middle;whiteSpace=wrap;rounded=0;fontSize=12;" vertex="1" parent="1">
                    <mxGeometry x="67" y="702" width="40" height="20" as="geometry"/>
                </mxCell>
                <mxCell id="47" value="Back" style="text;html=1;strokeColor=none;fillColor=none;align=left;verticalAlign=middle;whiteSpace=wrap;rounded=0;fontSize=12;" vertex="1" parent="1">
                    <mxGeometry x="84" y="544" width="40" height="20" as="geometry"/>
                </mxCell>
                <mxCell id="48" value="" style="triangle;whiteSpace=wrap;html=1;" vertex="1" parent="1">
                    <mxGeometry x="67" y="548" width="12" height="12" as="geometry"/>
                </mxCell>
                <mxCell id="49" value="" style="triangle;whiteSpace=wrap;html=1;" vertex="1" parent="1">
                    <mxGeometry x="48" y="666" width="12" height="12" as="geometry"/>
                </mxCell>
                <mxCell id="50" value="&lt;b&gt;New Opponent&lt;/b&gt;" style="text;html=1;strokeColor=none;fillColor=none;align=center;verticalAlign=middle;whiteSpace=wrap;rounded=0;fontSize=12;" vertex="1" parent="1">
                    <mxGeometry x="63" y="798" width="88" height="20" as="geometry"/>
                </mxCell>
                <mxCell id="51" value="Enter IP Address" style="text;html=1;strokeColor=none;fillColor=none;align=center;verticalAlign=middle;whiteSpace=wrap;rounded=0;fontSize=12;" vertex="1" parent="1">
                    <mxGeometry x="56" y="830" width="97" height="20" as="geometry"/>
                </mxCell>
                <mxCell id="52" value="_ _ _ _ _ _ _ _ _ _ _ _ _ _ _" style="text;html=1;strokeColor=none;fillColor=none;align=center;verticalAlign=middle;whiteSpace=wrap;rounded=0;fontSize=12;" vertex="1" parent="1">
                    <mxGeometry x="31" y="862" width="153" height="20" as="geometry"/>
                </mxCell>
                <mxCell id="53" value="Go!" style="text;html=1;strokeColor=none;fillColor=none;align=center;verticalAlign=middle;whiteSpace=wrap;rounded=0;fontSize=12;" vertex="1" parent="1">
                    <mxGeometry x="84" y="893" width="40" height="20" as="geometry"/>
                </mxCell>
                <mxCell id="54" value="Back" style="text;html=1;strokeColor=none;fillColor=none;align=center;verticalAlign=middle;whiteSpace=wrap;rounded=0;fontSize=12;" vertex="1" parent="1">
                    <mxGeometry x="84" y="915" width="40" height="20" as="geometry"/>
                </mxCell>
                <mxCell id="55" value="" style="triangle;whiteSpace=wrap;html=1;" vertex="1" parent="1">
                    <mxGeometry x="71.5" y="897" width="12" height="12" as="geometry"/>
                </mxCell>
            </root>
        </mxGraphModel>
    </diagram>
</mxfile>